<?xml version="1.0" encoding="UTF-8" standalone="no"?>
<svg xmlns="http://www.w3.org/2000/svg" height="50" width="207" version="1.1" viewBox="0 0 207 50">
 <title>Logo</title>
 <desc>Created using Figma</desc>
 <g id="Canvas" transform="translate(5513 -6762.2)">
  <g id="Logo">
   <g id="MEDIA SUITE" fill="#fff">
    <path fill="#fff" d="m-5388.2 6775.5c-2.002 0-3.696 0.3394-5.082 1.0214-1.386 0.66-2.4327 1.5631-3.1367 2.7071-0.682 1.144-1.0215 2.4313-1.0215 3.8613 0 1.716 0.4179 3.035 1.2539 3.959 0.858 0.924 2.0017 1.6293 3.4317 2.1133 0.77 0.264 1.4192 0.4617 1.9472 0.5937 1.298 0.418 2.2215 0.7687 2.7715 1.0547 0.55 0.264 0.8242 0.6278 0.8242 1.0898 0 0.638-0.2089 1.0896-0.6269 1.3536-0.418 0.242-1.0113 0.3632-1.7813 0.3632-1.078 0-2.2664-0.2109-3.5644-0.6289-1.298-0.44-2.4845-1.0761-3.5625-1.9121v6.1367c1.034 0.506 2.2093 0.8587 3.5293 1.0567s2.8723 0.2969 4.6543 0.2969c1.584 0 2.9906-0.3079 4.2226-0.9239 1.254-0.638 2.2223-1.5186 2.9043-2.6406 0.682-1.144 1.0235-2.4518 1.0235-3.9258 0-1.826-0.5056-3.1917-1.5176-4.0937-1.012-0.924-2.5643-1.6814-4.6543-2.2754-0.33-0.088-0.5482-0.144-0.6582-0.166-1.232-0.352-2.1126-0.6711-2.6406-0.9571s-0.793-0.7263-0.793-1.3203c0-0.638 0.2425-1.0987 0.7265-1.3847 0.506-0.308 1.1441-0.4629 1.9141-0.4629 0.968 0 2.0688 0.2761 3.3008 0.8261 1.254 0.55 2.2987 1.1974 3.1348 1.9454v-6.2696c-1.012-0.506-2.0364-0.8679-3.0704-1.0879-1.012-0.22-2.1873-0.33-3.5293-0.33zm-124.17 0.5605v22.01h6.2696v-13.562l5.8085 7.5566 5.8086-7.5234v13.529h6.5997v-22.01h-6.4688l-5.7422 7.4238-5.6094-7.4238zm28.779 0v22.01h15.607v-4.9492h-9.0078v-3.5977h7.7207v-4.9492h-7.6875v-3.5645h8.9746v-4.9492zm19.723 0v22.01h9.6679c3.806 0 6.6121-0.9123 8.4161-2.7383 1.804-1.848 2.705-4.598 2.705-8.25 0-3.674-0.901-6.424-2.705-8.25-1.782-1.848-4.5881-2.7715-8.4161-2.7715zm24.105 0v22.01h6.6329v-22.01zm17.227 0-8.1172 22.01h6.1055l1.1875-3.8594h7.5566l1.2207 3.8594h6.7657l-7.3926-22.01zm45.422 0v14.123c0 3.058 0.8675 5.28 2.6055 6.666 1.738 1.364 4.4563 2.0468 8.1523 2.0468 2.86 0 5.1361-0.7145 6.8301-2.1445s2.541-3.6203 2.541-6.5683v-14.123h-6.2695v13.728c0 1.364-0.3079 2.3976-0.9239 3.1016-0.594 0.704-1.441 1.0547-2.541 1.0547-1.232 0-2.1238-0.3283-2.6738-0.9883-0.528-0.682-0.791-1.738-0.791-3.168v-13.728zm24.428 0v22.01h6.6328v-22.01zm9.6035 0v4.9492h5.5118v17.061h6.5996v-17.061h5.6425v-4.9492zm20.721 0v22.01h15.609v-4.9492h-9.0098v-3.5977h7.9v-4.9492h-7.6894v-3.5645h8.9765v-4.9492zm-134.91 4.9492h2.2441c3.454 0 5.1797 2.0243 5.1797 6.0723 0 2.046-0.4495 3.5647-1.3515 4.5547-0.88 0.99-2.1562 1.4844-3.8282 1.4844h-2.2441zm37.637 1.2871 2.3438 7.293h-4.6211z"/>
   </g>
   <g id="CLARIAH">
    <path fill="#f26c50" d="m-5508.8 6762.9c-1.1334 0-1.9864 0.3163-2.5605 0.9492-0.5667 0.6329-0.8496 1.5749-0.8496 2.8261 0 1.2511 0.2829 2.1932 0.8496 2.8262 0.5741 0.6329 1.4271 0.9492 2.5605 0.9492 0.7433 0 1.4915-0.1761 2.2422-0.5293v-0.7617c-0.655 0.3607-1.3722 0.541-2.1523 0.541-0.9347 0-1.6161-0.2403-2.043-0.7187-0.4195-0.4857-0.6289-1.2543-0.6289-2.3067 0-1.0451 0.2138-1.8111 0.6406-2.2968 0.4269-0.4858 1.104-0.7285 2.0313-0.7285 0.7433 0 1.4605 0.1848 2.1523 0.5527v-0.7617c-0.7433-0.3606-1.4915-0.541-2.2422-0.541zm12.584 0.1v7.3632h4.5606v-0.7734h-3.7657v-6.5898zm16.795 0-2.9375 7.3632h0.8614l0.8828-2.2968h3.1797l0.8828 2.2968h0.8496l-2.9238-7.3632zm13.67 0v7.3632h0.7949v-2.9707h1.8769l1.92 2.9707h0.9394l-1.998-3.0585c0.5078-0.096 0.913-0.3385 1.2148-0.7286 0.3017-0.39 0.4512-0.8688 0.4512-1.4355 0-0.7065-0.1828-1.239-0.5508-1.5996-0.3679-0.3606-0.9091-0.541-1.623-0.541zm15.76 0v7.3632h0.795v-7.3632zm13.69 0-2.9356 7.3632h0.8614l0.8828-2.2968h3.1797l0.8828 2.2968h0.8496l-2.9258-7.3632zm13.672 0v7.3632h0.7949v-3.3007h3.9179v3.3007h0.795v-7.3632h-0.795v3.3105h-3.9179v-3.3105zm-42.326 0.75h2.1426c0.5373 0 0.9159 0.1247 1.1367 0.375 0.2208 0.2428 0.3301 0.6012 0.3301 1.0722 0 0.4784-0.1384 0.8372-0.418 1.0801-0.2797 0.2428-0.7227 0.3652-1.3262 0.3652h-1.8652zm-14.068 0.1875 1.291 3.3672h-2.582zm43.121 0 1.291 3.3672h-2.5839z"/>
   </g>
  </g>
 </g>
</svg>
