<svg id="Layer_1" data-name="Layer 1" xmlns="http://www.w3.org/2000/svg" viewBox="0 0 376.44 222.2"><defs><style>.cls-1{fill:#8ec4c8;}.cls-2{fill:none;stroke:#8ec4c8;stroke-miterlimit:10;}.cls-3,.cls-4{fill:#fff;}.cls-4{font-size:32px;font-family:Arial-BoldMT, Arial;font-weight:700;letter-spacing:0.05em;}</style></defs><path class="cls-1" d="M248.39,193l-45.68-15.6,12.78-7.52-.11-.08,42.4-17.12.37.92L217.41,170Zm-43.3-15.84,37.53,12.81-26.26-19.44Z" transform="translate(-128.19 -3.77)"/><path class="cls-2" d="M197.25,141.48" transform="translate(-128.19 -3.77)"/><path class="cls-2" d="M171.5,162.4" transform="translate(-128.19 -3.77)"/><polygon class="cls-1" points="74.34 213.37 73.34 213.32 75.2 173.79 43.11 159.08 10.76 147.82 27.99 191.15 27.06 191.52 9.02 146.16 43.48 158.16 76.23 173.16 74.34 213.37"/><rect class="cls-1" x="154.11" y="185.67" width="51.39" height="1" transform="translate(-181.7 70.37) rotate(-20.35)"/><polygon class="cls-1" points="42.95 158.97 8.03 121.63 25.72 84.68 72.41 99.33 72.11 100.28 26.25 85.89 9.22 121.45 43.68 158.29 42.95 158.97"/><polygon class="cls-1" points="75.24 173.63 69.01 153.86 69.01 134.28 71.75 99.87 58.88 62.81 125.29 107.91 88.63 166.39 87.78 165.86 123.93 108.19 60.81 65.34 72.76 99.74 70.01 134.32 70.01 153.78 76.19 173.33 75.24 173.63"/><path class="cls-1" d="M197.8,138.58l-63.09-13.2,45.43-12.8,20-9.42,30.65-29.7-6.46,47.39Zm-58.89-13.34,58.68,12.27,25.83-17.24,6-44.08L200.73,104l-.07,0-20.18,9.5Z" transform="translate(-128.19 -3.77)"/><polygon class="cls-1" points="95.61 117.34 71.96 100.21 72.55 99.4 95.79 116.24 124.47 107.57 124.76 108.53 95.61 117.34"/><rect class="cls-1" x="146.59" y="181.99" width="26.54" height="1" transform="translate(-191.63 273.57) rotate(-71.8)"/><rect class="cls-1" x="190.01" y="167.23" width="1" height="52.54" transform="translate(-193.74 99.34) rotate(-26)"/><circle class="cls-1" cx="59.85" cy="64.07" r="10.5"/><circle class="cls-1" cx="124.61" cy="108.05" r="9.59"/><circle class="cls-1" cx="27.53" cy="191.33" r="9.22"/><circle class="cls-1" cx="73.84" cy="213.35" r="8.85"/><circle class="cls-1" cx="117.32" cy="187.68" r="9.07"/><circle class="cls-1" cx="8.63" cy="121.54" r="8.63"/><circle class="cls-1" cx="9.89" cy="146.99" r="4.43"/><circle class="cls-1" cx="72.26" cy="99.81" r="3.59"/><circle class="cls-1" cx="75.71" cy="173.48" r="3.87"/><circle class="cls-1" cx="25.99" cy="85.29" r="5.98"/><circle class="cls-1" cx="101.93" cy="71.05" r="5.98"/><circle class="cls-1" cx="59.85" cy="64.07" r="10.5"/><circle class="cls-1" cx="124.61" cy="108.05" r="9.59"/><circle class="cls-1" cx="27.53" cy="191.33" r="9.22"/><circle class="cls-1" cx="73.84" cy="213.35" r="8.85"/><circle class="cls-1" cx="117.32" cy="187.68" r="9.07"/><circle class="cls-1" cx="8.63" cy="121.54" r="8.63"/><circle class="cls-1" cx="9.89" cy="146.99" r="4.43"/><circle class="cls-1" cx="72.26" cy="99.81" r="3.59"/><circle class="cls-1" cx="75.71" cy="173.48" r="3.87"/><circle class="cls-1" cx="25.99" cy="85.29" r="5.98"/><circle class="cls-1" cx="101.93" cy="71.05" r="5.98"/><path class="cls-3" d="M231.38,112.07H215.12a1,1,0,0,0-.82.42L197.7,136.3l-16.61-23.81a1,1,0,0,0-.82-.42H164a1,1,0,0,0-1,1v56.82a1,1,0,0,0,1,1h15a1,1,0,0,0,1-1V137l16.91,21.29a1,1,0,0,0,1.57,0L215.39,137v32.93a1,1,0,0,0,1,1h15a1,1,0,0,0,1-1V113.07A1,1,0,0,0,231.38,112.07Z" transform="translate(-128.19 -3.77)"/><path class="cls-3" d="M240.2,171.4V138.24h22.72v6.21H248.25v7.21H261v6.27H248.25v7.26h14.67v6.21Z" transform="translate(-128.19 -3.77)"/><path class="cls-3" d="M269.68,171.4V138.24H283q8.46,0,12.43,4.2t4,12.4q0,8.16-4,12.36T283,171.4Zm8.05-6.21h4.33q4.47,0,6.78-2.49t2.31-7.86c0-3.64-.77-6.29-2.31-7.93s-3.8-2.46-6.78-2.46h-4.33Z" transform="translate(-128.19 -3.77)"/><path class="cls-3" d="M305,171.4V138.24h8.05V171.4Z" transform="translate(-128.19 -3.77)"/><path class="cls-3" d="M342.06,171.4h8.26l-11.74-33.16h-8.8L317.26,171.4h7.6l2.39-7.16h12.39Zm-12.84-13.08,4.17-12.52,4.24,12.52Z" transform="translate(-128.19 -3.77)"/><path class="cls-3" d="M379.35,172.1a39.38,39.38,0,0,1-4.58-.25,24.9,24.9,0,0,1-3.77-.75,21.1,21.1,0,0,1-3.39-1.29v-7.66a16.21,16.21,0,0,0,5.18,2.79,17.51,17.51,0,0,0,5.46.94,6,6,0,0,0,3.51-.87,3.06,3.06,0,0,0,1.22-2.66,2.57,2.57,0,0,0-1.12-2.16,10.74,10.74,0,0,0-3-1.44l-4.13-1.42a19.47,19.47,0,0,1-2.83-1.14,9.79,9.79,0,0,1-2.49-1.77,7.73,7.73,0,0,1-1.73-2.61,9.63,9.63,0,0,1-.65-3.78,10.7,10.7,0,0,1,.74-3.92,9.47,9.47,0,0,1,2.32-3.39,11.11,11.11,0,0,1,4-2.36,17,17,0,0,1,5.71-.87,24,24,0,0,1,3.61.25,21,21,0,0,1,3,.72,21.73,21.73,0,0,1,2.93,1.22v7.76a19.22,19.22,0,0,0-2.56-1.77,18,18,0,0,0-3-1.37,10.55,10.55,0,0,0-3.23-.59,8.51,8.51,0,0,0-2.73.3,4,4,0,0,0-1.94,1.11,2.81,2.81,0,0,0-.7,2,2.84,2.84,0,0,0,.85,2.19,6.36,6.36,0,0,0,2.33,1.31c1,.35,2.11.72,3.33,1.12a36.48,36.48,0,0,1,3.76,1.32,11.75,11.75,0,0,1,3,1.81,7.2,7.2,0,0,1,2,2.69,9.39,9.39,0,0,1,.7,3.83,10.93,10.93,0,0,1-1.39,5.44,9.92,9.92,0,0,1-4,3.88A13.56,13.56,0,0,1,379.35,172.1Z" transform="translate(-128.19 -3.77)"/><path class="cls-3" d="M412.16,172.44q-7.65,0-11.46-3.25T396.9,159V138.24h8.4v20.43q0,3.83,1.54,5.67t4.92,1.84a6.22,6.22,0,0,0,4.8-1.84c1.14-1.23,1.72-3.12,1.72-5.67V138.24h7.65V159a14.69,14.69,0,0,1-1.76,7.58,11,11,0,0,1-4.85,4.4A16.76,16.76,0,0,1,412.16,172.44Z" transform="translate(-128.19 -3.77)"/><path class="cls-3" d="M433,171.4V138.24H441V171.4Z" transform="translate(-128.19 -3.77)"/><path class="cls-3" d="M455.06,171.4v-27h-9.29v-6.21h26.79v6.21h-9.44v27Z" transform="translate(-128.19 -3.77)"/><path class="cls-3" d="M477.29,171.4V138.24H500v6.21H485.34v7.21h12.73v6.27H485.34v7.26H500v6.21Z" transform="translate(-128.19 -3.77)"/><text class="cls-4" transform="translate(221.26 122.36)">CLARIAH</text><text x="-128.19" y="-3.77"/><text x="-128.19" y="-3.77"/><text x="-128.19" y="-3.77"/><text x="-128.19" y="-3.77"/><text x="-128.19" y="-3.77"/><text x="-128.19" y="-3.77"/><text x="-128.19" y="-3.77"/><text x="-128.19" y="-3.77"/></svg>